<svg id="Layer_1" data-name="Layer 1" xmlns="http://www.w3.org/2000/svg" viewBox="0 0 712.86 839.2"><defs><style>.cls-1{fill:#fff;}</style></defs><path class="cls-1" d="M455.17,299.67H712.86a0,0,0,0,1,0,0V795.85a43.35,43.35,0,0,1-43.35,43.35H411.81a0,0,0,0,1,0,0V343A43.35,43.35,0,0,1,455.17,299.67Z"/><path class="cls-1" d="M19.24,253H651.48a0,0,0,0,1,0,0V540a48.29,48.29,0,0,1-48.29,48.29H-29a0,0,0,0,1,0,0v-287A48.29,48.29,0,0,1,19.24,253Z" transform="translate(588.31 29.05) rotate(90)"/><circle class="cls-1" cx="669.23" cy="223.89" r="113.84" transform="translate(153 742.75) rotate(-76.62)"/></svg>